<svg width="210" height="37" viewBox="0 0 210 37" fill="none" xmlns="http://www.w3.org/2000/svg">
<g clip-path="url(#clip0_7676_8633)">
<path d="M41.13 7.87L41.47 8.36L31.72 30.93C30.07 34.73 27.45 36.63 23.85 36.63C22.29 36.63 20.96 36.31 19.86 35.68L19.65 35.24L20.85 31.14L21.34 30.93C21.94 31.28 22.66 31.45 23.49 31.44C24.67 31.44 25.52 30.86 26.04 29.71L26.95 27.81L18.04 8.37L18.36 7.88H24.93L30.17 21.45L35.36 7.88H41.14L41.13 7.87Z" fill="url(#paint0_linear_7676_8633)"/>
<path d="M67.87 7.35C70.54 7.35 72.7 8.2 74.35 9.9C76 11.6 76.82 13.87 76.82 16.7V29.49H70.13V17.16C70.13 15.89 69.8 14.89 69.14 14.14C68.48 13.39 67.57 13.02 66.42 13.02C65.27 13.02 64.28 13.4 63.54 14.16C62.8 14.92 62.43 15.92 62.43 17.16V29.49H55.74V17.16C55.74 15.89 55.41 14.89 54.75 14.14C54.09 13.39 53.17 13.02 51.98 13.02C50.79 13.02 49.84 13.4 49.12 14.16C48.4 14.92 48.03 15.92 48.03 17.16V29.49H41.34V7.87H46.96V10.59C48.69 8.42 50.96 7.34 53.76 7.34C56.73 7.34 59 8.38 60.58 10.46C62.45 8.38 64.89 7.34 67.88 7.34L67.87 7.35Z" fill="url(#paint1_linear_7676_8633)"/>
<path d="M91.62 7.35C94.73 7.35 97.31 8.44 99.36 10.62C101.41 12.8 102.43 15.49 102.43 18.68C102.43 21.87 101.41 24.56 99.38 26.74C97.35 28.92 94.76 30.01 91.62 30.01C89.42 30.01 87.45 29.41 85.69 28.19V36.13H79V7.87H84.62V9.94C86.65 8.21 88.98 7.34 91.63 7.34L91.62 7.35ZM90.54 24.3C92.13 24.3 93.41 23.77 94.39 22.71C95.37 21.65 95.86 20.31 95.86 18.69C95.86 17.07 95.37 15.73 94.38 14.67C93.39 13.61 92.11 13.08 90.54 13.08C89.05 13.08 87.8 13.59 86.8 14.61C85.8 15.63 85.3 16.99 85.3 18.69C85.3 20.39 85.8 21.75 86.8 22.77C87.8 23.79 89.04 24.3 90.54 24.3Z" fill="url(#paint2_linear_7676_8633)"/>
<path d="M103.49 0.7L109.68 0L110.14 0.32V29.5H103.49V0.7Z" fill="url(#paint3_linear_7676_8633)"/>
<path d="M133.8 20.16H117.76C117.9 21.75 118.51 22.97 119.58 23.81C120.65 24.65 121.96 25.08 123.51 25.08C125.99 25.08 127.98 24.29 129.48 22.69H129.94L132.94 25.56V26.07C131.81 27.39 130.37 28.38 128.61 29.04C126.85 29.69 125.05 30.02 123.21 30.02C119.78 30.02 116.93 28.98 114.67 26.88C112.41 24.79 111.28 22.07 111.28 18.72C111.28 15.37 112.36 12.72 114.52 10.57C116.68 8.42 119.44 7.34 122.81 7.34C126.18 7.34 128.66 8.35 130.77 10.38C132.88 12.49 133.94 15.17 133.94 18.42C133.94 19.05 133.9 19.63 133.81 20.15L133.8 20.16ZM122.63 12.08C121.31 12.08 120.21 12.47 119.35 13.24C118.48 14.01 117.97 15.05 117.8 16.34H127.43C127.26 15.13 126.82 14.17 126.1 13.45C125.23 12.54 124.07 12.08 122.64 12.08H122.63Z" fill="url(#paint4_linear_7676_8633)"/>
<path d="M9.69 30.06C7.71 30.06 5.84 29.7 4.1 28.97C2.36 28.24 0.99 27.28 0 26.07V25.61L2.98 22.27H3.47C4.13 23.04 5.05 23.7 6.24 24.23C7.42 24.77 8.59 25.03 9.74 25.03C10.51 25.03 11.14 24.87 11.62 24.56C12.1 24.24 12.34 23.84 12.34 23.35C12.34 22.91 12.17 22.54 11.82 22.22C11.47 21.9 11.12 21.67 10.75 21.51C10.38 21.36 9.83 21.14 9.08 20.88C8.15 20.6 7.41 20.36 6.85 20.15C6.29 19.95 5.61 19.64 4.8 19.22C3.99 18.8 3.36 18.37 2.92 17.92C2.48 17.47 2.09 16.9 1.75 16.21C1.41 15.52 1.24 14.75 1.24 13.89C1.24 11.88 2.03 10.28 3.6 9.09C5.18 7.9 7.29 7.31 9.93 7.31C11.75 7.31 13.45 7.64 15.03 8.29C16.61 8.94 17.81 9.8 18.63 10.85V11.34L15.67 14.44H15.21C13.62 12.91 11.86 12.15 9.93 12.16C9.24 12.16 8.68 12.3 8.25 12.57C7.82 12.84 7.61 13.19 7.61 13.61C7.61 13.78 7.65 13.94 7.72 14.09C7.79 14.24 7.91 14.38 8.08 14.51C8.25 14.64 8.41 14.76 8.58 14.86C8.74 14.96 8.98 15.07 9.3 15.2C9.62 15.33 9.89 15.44 10.12 15.53C10.35 15.62 10.69 15.74 11.13 15.9C11.57 16.06 11.93 16.19 12.2 16.3C14.34 17.13 15.95 18.06 17.02 19.09C18.09 20.12 18.63 21.58 18.63 23.48C18.63 25.38 17.81 27.06 16.16 28.26C14.51 29.46 12.35 30.06 9.68 30.06H9.69Z" fill="url(#paint5_linear_7676_8633)"/>
<path d="M146.95 7.35C150.12 7.35 152.72 8.44 154.77 10.62C156.82 12.8 157.84 15.49 157.84 18.68C157.84 21.87 156.82 24.56 154.77 26.74C152.72 28.92 150.12 30.01 146.95 30.01C143.15 30.01 140.22 28.48 138.17 25.41V35.97H136.06V7.87H138.09V11.99C139.07 10.55 140.33 9.42 141.86 8.59C143.39 7.76 145.09 7.34 146.96 7.34L146.95 7.35ZM146.78 28.06C149.4 28.06 151.53 27.16 153.18 25.36C154.83 23.56 155.65 21.34 155.65 18.69C155.65 16.04 154.83 13.82 153.18 12.02C151.53 10.22 149.4 9.32 146.78 9.32C144.16 9.32 142.14 10.17 140.47 11.86C138.79 13.56 137.96 15.83 137.96 18.69C137.96 21.55 138.8 23.79 140.47 25.5C142.14 27.21 144.25 28.06 146.78 28.06Z" fill="url(#paint6_linear_7676_8633)"/>
<path d="M168.04 7.35C170.78 7.35 172.93 8.1 174.47 9.6C176.01 11.1 176.78 13.15 176.78 15.75V29.49H174.71V26.15C173.85 27.36 172.71 28.31 171.3 28.99C169.89 29.67 168.37 30.01 166.75 30.01C164.27 30.01 162.27 29.37 160.74 28.1C159.21 26.83 158.45 25.17 158.45 23.13C158.45 21.09 159.27 19.32 160.91 18.02C162.55 16.73 164.71 16.08 167.4 16.08C169.93 16.08 172.37 16.71 174.7 17.98V15.38C174.7 13.56 174.09 12.1 172.88 10.98C171.67 9.86 170.05 9.3 168.02 9.3C165.3 9.3 162.9 10.25 160.8 12.15H160.59L159.64 10.8V10.63C160.68 9.62 161.95 8.81 163.44 8.22C164.93 7.63 166.46 7.33 168.02 7.33L168.04 7.35ZM166.88 28.06C168.99 28.06 170.82 27.49 172.38 26.34C173.94 25.19 174.71 23.65 174.71 21.71V19.98C172.37 18.66 169.95 18 167.45 18C165.41 18 163.77 18.48 162.52 19.42C161.27 20.37 160.65 21.63 160.65 23.19C160.65 24.63 161.23 25.8 162.38 26.7C163.53 27.61 165.03 28.06 166.88 28.06Z" fill="url(#paint7_linear_7676_8633)"/>
<path d="M186.27 30.02C182.86 30.02 180.24 28.69 178.4 26.03V25.82L179.75 24.79H179.96C180.57 25.8 181.42 26.6 182.51 27.19C183.6 27.78 184.82 28.07 186.14 28.07C187.76 28.07 189.06 27.71 190.06 26.99C191.06 26.27 191.55 25.31 191.55 24.1C191.55 23.55 191.43 23.04 191.18 22.57C190.93 22.1 190.68 21.71 190.42 21.4C190.16 21.09 189.71 20.76 189.06 20.4C188.41 20.04 187.92 19.8 187.59 19.67C187.26 19.54 186.66 19.3 185.81 18.95C185.53 18.84 185.31 18.75 185.16 18.7C184.36 18.35 183.69 18.03 183.16 17.74C182.62 17.45 182.08 17.09 181.51 16.64C180.95 16.2 180.52 15.67 180.23 15.05C179.94 14.43 179.8 13.75 179.8 13C179.8 11.33 180.43 9.97 181.7 8.93C182.97 7.89 184.59 7.37 186.58 7.37C187.99 7.37 189.3 7.69 190.52 8.33C191.74 8.97 192.69 9.83 193.38 10.92V11.15L192.05 12.18H191.86C190.57 10.28 188.78 9.33 186.5 9.33C185.15 9.33 184.05 9.65 183.22 10.28C182.38 10.91 181.96 11.76 181.96 12.81C181.96 13.77 182.32 14.54 183.03 15.13C183.74 15.72 184.79 16.32 186.16 16.92C188.75 17.99 190.44 18.8 191.23 19.35C192.9 20.53 193.73 22.12 193.72 24.1C193.72 25.89 193.04 27.32 191.67 28.41C190.3 29.49 188.51 30.04 186.29 30.04L186.27 30.02Z" fill="url(#paint8_linear_7676_8633)"/>
<path d="M201.74 30.02C198.33 30.02 195.71 28.69 193.87 26.03V25.82L195.22 24.79H195.43C196.04 25.8 196.89 26.6 197.98 27.19C199.07 27.78 200.29 28.07 201.61 28.07C203.23 28.07 204.53 27.71 205.53 26.99C206.53 26.27 207.02 25.31 207.02 24.1C207.02 23.55 206.9 23.04 206.65 22.57C206.4 22.1 206.15 21.71 205.89 21.4C205.63 21.09 205.18 20.76 204.53 20.4C203.88 20.04 203.39 19.8 203.06 19.67C202.73 19.54 202.13 19.3 201.28 18.95C201 18.84 200.78 18.75 200.63 18.7C199.83 18.35 199.16 18.03 198.63 17.74C198.09 17.45 197.55 17.09 196.98 16.64C196.42 16.2 195.99 15.67 195.7 15.05C195.41 14.43 195.27 13.75 195.27 13C195.27 11.33 195.9 9.97 197.17 8.93C198.44 7.89 200.06 7.37 202.05 7.37C203.46 7.37 204.77 7.69 205.99 8.33C207.21 8.97 208.16 9.83 208.85 10.92V11.15L207.52 12.18H207.33C206.04 10.28 204.25 9.33 201.97 9.33C200.62 9.33 199.52 9.65 198.69 10.28C197.85 10.91 197.43 11.76 197.43 12.81C197.43 13.77 197.79 14.54 198.5 15.13C199.21 15.72 200.26 16.32 201.63 16.92C204.22 17.99 205.91 18.8 206.7 19.35C208.37 20.53 209.2 22.12 209.19 24.1C209.19 25.89 208.51 27.32 207.14 28.41C205.77 29.49 203.98 30.04 201.76 30.04L201.74 30.02Z" fill="url(#paint9_linear_7676_8633)"/>
</g>
<defs>
<linearGradient id="paint0_linear_7676_8633" x1="0" y1="18.315" x2="209.19" y2="18.315" gradientUnits="userSpaceOnUse">
<stop stop-color="#FB923C"/>
<stop offset="1" stop-color="#EA580C"/>
</linearGradient>
<linearGradient id="paint1_linear_7676_8633" x1="0" y1="18.315" x2="209.19" y2="18.315" gradientUnits="userSpaceOnUse">
<stop stop-color="#FB923C"/>
<stop offset="1" stop-color="#EA580C"/>
</linearGradient>
<linearGradient id="paint2_linear_7676_8633" x1="0" y1="18.315" x2="209.19" y2="18.315" gradientUnits="userSpaceOnUse">
<stop stop-color="#FB923C"/>
<stop offset="1" stop-color="#EA580C"/>
</linearGradient>
<linearGradient id="paint3_linear_7676_8633" x1="0" y1="18.315" x2="209.19" y2="18.315" gradientUnits="userSpaceOnUse">
<stop stop-color="#FB923C"/>
<stop offset="1" stop-color="#EA580C"/>
</linearGradient>
<linearGradient id="paint4_linear_7676_8633" x1="0" y1="18.315" x2="209.19" y2="18.315" gradientUnits="userSpaceOnUse">
<stop stop-color="#FB923C"/>
<stop offset="1" stop-color="#EA580C"/>
</linearGradient>
<linearGradient id="paint5_linear_7676_8633" x1="0" y1="18.315" x2="209.19" y2="18.315" gradientUnits="userSpaceOnUse">
<stop stop-color="#FB923C"/>
<stop offset="1" stop-color="#EA580C"/>
</linearGradient>
<linearGradient id="paint6_linear_7676_8633" x1="0" y1="18.315" x2="209.19" y2="18.315" gradientUnits="userSpaceOnUse">
<stop stop-color="#FB923C"/>
<stop offset="1" stop-color="#EA580C"/>
</linearGradient>
<linearGradient id="paint7_linear_7676_8633" x1="0" y1="18.315" x2="209.19" y2="18.315" gradientUnits="userSpaceOnUse">
<stop stop-color="#FB923C"/>
<stop offset="1" stop-color="#EA580C"/>
</linearGradient>
<linearGradient id="paint8_linear_7676_8633" x1="0" y1="18.315" x2="209.19" y2="18.315" gradientUnits="userSpaceOnUse">
<stop stop-color="#FB923C"/>
<stop offset="1" stop-color="#EA580C"/>
</linearGradient>
<linearGradient id="paint9_linear_7676_8633" x1="0" y1="18.315" x2="209.19" y2="18.315" gradientUnits="userSpaceOnUse">
<stop stop-color="#FB923C"/>
<stop offset="1" stop-color="#EA580C"/>
</linearGradient>
<clipPath id="clip0_7676_8633">
<rect width="209.17" height="36.63" fill="white"/>
</clipPath>
</defs>
</svg>
